<svg width="207" height="237" viewBox="0 0 207 237" fill="none" xmlns="http://www.w3.org/2000/svg">
<g id="Group 13919">
<ellipse id="Ellipse 41" cx="104.392" cy="219.765" rx="72.6909" ry="16.8349" fill="url(#paint0_radial_2302_67006)"/>
<path id="Vector" d="M123.543 145.402C118.833 134.802 118.619 119.588 122.42 110.137C135.037 78.6165 176.11 71.2248 206.043 73.3367C200.922 105.596 153.935 159.32 123.543 145.402Z" fill="url(#paint1_linear_2302_67006)"/>
<path id="Vector_2" d="M136.556 50.4132C136.556 68.189 123.445 96.394 108.764 104.344C97.4545 100.302 80.0122 70.2145 81.9179 52.95C84.2136 32.1515 94.0701 9.02849 116.401 0C129.705 12.6716 136.556 29.9423 136.556 50.4132Z" fill="url(#paint2_linear_2302_67006)"/>
<path id="Vector_3" d="M67.2749 90.0103C81.6344 103.104 95.0777 122.533 91.2844 149.502C65.3882 159.123 -3.54588 108.487 0.786032 72.5975C24.6481 70.6439 47.689 75.438 67.2749 90.0103Z" fill="url(#paint3_linear_2302_67006)"/>
<path id="Rectangle 667" d="M42.1772 19.1877L48.8411 30.8968L42.1772 42.6056L35.5117 30.8968L42.1772 19.1877Z" fill="url(#paint4_linear_2302_67006)"/>
<path id="Rectangle 668" d="M160.222 65.044L164.933 73.3224L160.222 81.6005L155.509 73.3224L160.222 65.044Z" fill="url(#paint5_linear_2302_67006)"/>
<path id="Rectangle 669" d="M54.5537 148.135L62.55 162.185L54.5537 176.235L46.5554 162.185L54.5537 148.135Z" fill="url(#paint6_linear_2302_67006)"/>
<path id="Vector_4" d="M110.331 163.44C114.202 153.217 143.647 103.437 181.336 88.5953C165.889 96.7781 138.733 123.178 125.588 146.726C115.821 164.255 113.445 178.352 110.331 197.729C110.119 199.155 108.958 208.975 108.483 209.292C108.219 209.45 102.887 209.398 102.412 209.028C104.593 196.086 100.102 172.6 88.4845 152.834C71.6342 124.165 43.2607 99.224 27.4468 91.4464C53.1717 102.152 93.9777 140.641 102.412 169.265C106.837 157.904 106.167 61.6451 107.657 43.327C110.613 59.0081 112.316 129.466 110.331 163.44Z" fill="#0281DD"/>
<path id="Vector_5" d="M101.078 204.752C101.598 204.872 102.158 204.992 102.678 205.112C104.038 205.433 105.358 205.833 106.717 206.153C110.437 206.994 114.237 207.034 118.036 207.034C121.676 207.034 125.875 207.554 129.395 206.673C132.074 206.033 135.114 206.753 137.554 207.914C142.633 210.356 145.873 215.279 148.633 220.002C148.873 220.403 150.392 223.725 150.712 223.725C119.236 224.085 87.7596 223.485 56.3232 223.725C56.4832 223.725 58.203 220.323 58.443 219.922C59.3229 218.682 60.2828 217.521 61.3627 216.44C63.5224 214.319 66.0821 212.637 68.8818 211.597C70.2816 211.076 71.7615 210.756 73.2413 210.596C74.4411 210.476 76.2809 210.956 77.3608 210.396C78.4407 209.836 79.2406 208.314 80.2405 207.554C81.5203 206.593 82.9602 205.913 84.48 205.393C85.7198 204.992 86.9597 204.672 88.2395 204.472C92.519 203.791 96.9185 203.871 101.158 204.712L101.078 204.752Z" fill="#1673CA"/>
</g>
<defs>
<radialGradient id="paint0_radial_2302_67006" cx="0" cy="0" r="1" gradientUnits="userSpaceOnUse" gradientTransform="translate(104.392 219.765) rotate(90) scale(16.8349 72.6909)">
<stop stop-color="#85BCFF"/>
<stop offset="1" stop-color="#B4D5FD" stop-opacity="0"/>
</radialGradient>
<linearGradient id="paint1_linear_2302_67006" x1="162.906" y1="73.0026" x2="162.906" y2="147.658" gradientUnits="userSpaceOnUse">
<stop stop-color="#1693ED"/>
<stop offset="1" stop-color="#51A7EA"/>
</linearGradient>
<linearGradient id="paint2_linear_2302_67006" x1="109.165" y1="0" x2="109.165" y2="104.344" gradientUnits="userSpaceOnUse">
<stop stop-color="#1693ED"/>
<stop offset="1" stop-color="#51A7EA"/>
</linearGradient>
<linearGradient id="paint3_linear_2302_67006" x1="46.2625" y1="72.1821" x2="46.2625" y2="150.695" gradientUnits="userSpaceOnUse">
<stop stop-color="#1693ED"/>
<stop offset="1" stop-color="#51A7EA"/>
</linearGradient>
<linearGradient id="paint4_linear_2302_67006" x1="43.6456" y1="21.4064" x2="40.9801" y2="36.1555" gradientUnits="userSpaceOnUse">
<stop stop-color="#FFB40E"/>
<stop offset="1" stop-color="#FFCE61"/>
</linearGradient>
<linearGradient id="paint5_linear_2302_67006" x1="161.26" y1="66.6127" x2="159.375" y2="77.0403" gradientUnits="userSpaceOnUse">
<stop stop-color="#FFB40E"/>
<stop offset="1" stop-color="#FFCE61"/>
</linearGradient>
<linearGradient id="paint6_linear_2302_67006" x1="56.3157" y1="150.797" x2="53.1173" y2="168.495" gradientUnits="userSpaceOnUse">
<stop stop-color="#FFB40E"/>
<stop offset="1" stop-color="#FFCE61"/>
</linearGradient>
</defs>
</svg>
